<?xml version="1.0" standalone="no"?>
<!DOCTYPE svg PUBLIC "-//W3C//DTD SVG 20010904//EN"
 "http://www.w3.org/TR/2001/REC-SVG-20010904/DTD/svg10.dtd">
<svg version="1.0" xmlns="http://www.w3.org/2000/svg"
 width="180.000000pt" height="45.000000pt" viewBox="0 0 180.000000 45.000000"
 preserveAspectRatio="xMidYMid meet">
<metadata>
Created by potrace 1.16, written by Peter Selinger 2001-2019
</metadata>
<g transform="translate(0.000000,45.000000) scale(0.100000,-0.100000)"
fill="#000000" stroke="none">
<path d="M60 400 c-18 -18 -20 -33 -20 -170 0 -137 2 -152 20 -170 20 -20 33
-20 835 -20 802 0 815 0 835 20 18 18 20 33 20 170 0 137 -2 152 -20 170 -20
20 -33 20 -835 20 -802 0 -815 0 -835 -20z m1564 -69 c3 -4 -3 -16 -14 -26
-19 -17 -19 -18 5 -37 27 -21 34 -65 13 -86 -7 -7 -35 -12 -64 -12 -43 0 -53
-3 -57 -20 -9 -35 -87 -40 -87 -5 0 10 10 15 28 15 l27 0 -25 13 c-13 7 -29
24 -34 39 -18 52 45 103 82 66 7 -7 12 -27 12 -45 0 -32 1 -33 45 -33 38 0 45
3 45 20 0 16 -7 20 -30 20 -40 0 -40 25 1 68 31 33 44 39 53 23z m-680 -23 c9
-12 16 -30 16 -40 0 -14 8 -18 35 -18 29 0 35 -4 35 -21 0 -19 -5 -21 -40 -17
-27 2 -40 0 -40 -9 0 -7 -11 -20 -25 -29 -21 -14 -31 -15 -51 -5 -32 14 -26
37 9 33 32 -4 37 15 5 20 -12 2 -29 15 -37 29 -13 24 -13 29 2 53 22 34 69 36
91 4z m-472 -29 c11 -6 26 -26 34 -45 19 -46 47 -43 54 6 10 72 100 60 100
-15 0 -53 -7 -55 -218 -55 l-194 0 -20 -25 c-25 -32 -78 -35 -78 -5 0 12 6 20
13 19 33 -4 37 2 37 56 0 30 2 55 4 55 2 0 11 3 20 6 11 4 15 -3 18 -33 3 -33
6 -38 28 -38 19 0 26 6 29 25 3 24 16 39 34 40 4 0 7 -15 7 -32 l0 -33 20 33
c28 46 72 62 112 41z m896 -1 c18 -18 15 -95 -4 -102 -9 -3 -87 -6 -175 -6
-137 0 -158 2 -153 15 4 8 17 15 29 15 32 0 41 17 20 40 -9 10 -14 24 -10 29
13 22 35 10 53 -26 23 -51 55 -52 62 -3 7 51 38 54 42 3 3 -33 7 -38 30 -41
22 -3 26 0 21 17 -12 48 52 92 85 59z"/>
</g>
</svg>
